<svg xmlns="http://www.w3.org/2000/svg" width="30" height="30" viewBox="0 0 11.5 11.5">
  <metadata><?xpacket begin="﻿" id="W5M0MpCehiHzreSzNTczkc9d"?>
<x:xmpmeta xmlns:x="adobe:ns:meta/" x:xmptk="Adobe XMP Core 5.6-c142 79.160924, 2017/07/13-01:06:39        ">
   <rdf:RDF xmlns:rdf="http://www.w3.org/1999/02/22-rdf-syntax-ns#">
      <rdf:Description rdf:about=""/>
   </rdf:RDF>
</x:xmpmeta>                           
<?xpacket end="w"?></metadata>
<defs>
    <style>
      .cls-1 {
        fill: #fff;
        fill-rule: evenodd;
      }
    </style>
  </defs>
  <path id="Facebook" class="cls-1" d="M145.68,252.24h8.64a1.44,1.44,0,0,1,1.44,1.44v8.64a1.44,1.44,0,0,1-1.44,1.44h-8.64a1.44,1.44,0,0,1-1.44-1.44v-8.64A1.44,1.44,0,0,1,145.68,252.24Zm-0.015,6.45h0.705v4.346h1.462V258.69h1.313l0.311-1.412h-1.528a1.107,1.107,0,0,1,.108-0.806,0.86,0.86,0,0,1,.595-0.2,1.551,1.551,0,0,1,.767.306l0.33-1.243a4.528,4.528,0,0,0-1.359-.318,2.349,2.349,0,0,0-1.15.246,1.368,1.368,0,0,0-.615.718,2.465,2.465,0,0,0-.189,1.111v0.185h-0.727Z" transform="translate(-144.25 -252.25)"/>
</svg>
