<svg xmlns="http://www.w3.org/2000/svg" width="12" height="16" viewBox="0 0 12 16">
  <metadata><?xpacket begin="﻿" id="W5M0MpCehiHzreSzNTczkc9d"?>
<x:xmpmeta xmlns:x="adobe:ns:meta/" x:xmptk="Adobe XMP Core 5.6-c142 79.160924, 2017/07/13-01:06:39        ">
   <rdf:RDF xmlns:rdf="http://www.w3.org/1999/02/22-rdf-syntax-ns#">
      <rdf:Description rdf:about=""/>
   </rdf:RDF>
</x:xmpmeta>                                                                                                    
<?xpacket end="w"?></metadata>
<defs>
    <style>
      .cls-1 {
        fill: #e4e0db;
        fill-rule: evenodd;
      }
    </style>
  </defs>
  <path id="locked" class="cls-1" d="M123,140a3.775,3.775,0,0,1,4,3.5V152a4.036,4.036,0,0,1-8,0v-8.5A3.775,3.775,0,0,1,123,140Zm0,2a1.806,1.806,0,0,1,2,1.5V147a2.083,2.083,0,0,1-4,0v-3.5A1.805,1.805,0,0,1,123,142Zm-4.5,4.969h9c0.828,0,1.5,1.2,1.5,2.031v5.5a1.5,1.5,0,0,1-1.5,1.5h-9a1.5,1.5,0,0,1-1.5-1.5v-6.031A1.5,1.5,0,0,1,118.5,146.969ZM123,150.5a1,1,0,0,1,1,1V154a1,1,0,0,1-2,0v-2.5A1,1,0,0,1,123,150.5Zm0-1.5a2,2,0,1,1-2,2A2,2,0,0,1,123,149Z" transform="translate(-117 -140)"/>
</svg>
