<svg xmlns="http://www.w3.org/2000/svg" width="12" height="12.969" viewBox="0 0 12 12.969">
  <metadata><?xpacket begin="﻿" id="W5M0MpCehiHzreSzNTczkc9d"?>
<x:xmpmeta xmlns:x="adobe:ns:meta/" x:xmptk="Adobe XMP Core 5.6-c142 79.160924, 2017/07/13-01:06:39        ">
   <rdf:RDF xmlns:rdf="http://www.w3.org/1999/02/22-rdf-syntax-ns#">
      <rdf:Description rdf:about=""/>
   </rdf:RDF>
</x:xmpmeta>                        
<?xpacket end="w"?></metadata>
<defs>
    <style>
      .cls-1 {
        fill: #e4e0db;
        fill-rule: evenodd;
      }
    </style>
  </defs>
  <path id="male" class="cls-1" d="M118.5,99.938a14.181,14.181,0,0,1,4.5-1,12.936,12.936,0,0,1,4.5,1L129,104H117Zm4.5-8.907a3.6,3.6,0,0,1,3.5,3c0.033,0.2,0,1.256,0,1.469,0,0.858-1.357,2.5-3.5,2.5s-3.5-1.642-3.5-2.5c0-.189-0.026-1.288,0-1.469A3.531,3.531,0,0,1,123,91.031Z" transform="translate(-117 -91.031)"/>
</svg>
